<?xml version="1.0" encoding="UTF-8"?>
<svg xmlns="http://www.w3.org/2000/svg" version="1.1" viewBox="0 0 2000 2000">
  <defs>
    <style>
      .cls-1 {
        fill: #ee9b0f;
      }

      .cls-2 {
        fill: #010101;
      }

      .cls-3 {
        fill: #000008;
      }

      .cls-4 {
        fill: #fff;
      }

      .cls-5 {
        fill: #f3b601;
      }

      .cls-6 {
        fill: #ffd04f;
      }

      .cls-7 {
        fill: #fabd14;
      }

      .cls-8 {
        fill: #f6b505;
      }

      .cls-9 {
        fill: #f7ae0a;
      }

      .cls-10 {
        fill: #363226;
      }

      .cls-11 {
        fill: #fedb77;
      }

      .cls-12 {
        fill: #eaac00;
      }

      .cls-13 {
        fill: #ee9b0d;
      }

      .cls-14 {
        fill: #1a1917;
      }

      .cls-15 {
        fill: #ffbd07;
      }

      .cls-16 {
        fill: #c3a354;
      }

      .cls-17 {
        fill: #ffcf4e;
      }
    </style>
  </defs>
  <!-- Generator: Adobe Illustrator 28.7.1, SVG Export Plug-In . SVG Version: 1.2.0 Build 142)  -->
  <g>
    <g id="Layer_1">
      <g>
        <path class="cls-15" d="M573.01,1207.88s.08,2.93.39,8.33c5.38-10.55,10.81-20.79,16.2-30.45,1.32-2.36,2.64-4.69,3.98-7-41.17-1.53-175.28-9.29-281.59-47.2-107.36-38.27-236.77-118.31-274.53-142.34-3.74,5.66-6.32,11.81-7.51,18.47-12.17,68.57,29.86,157.05,193.55,235.58,136.9,65.67,281.93,34.79,325.75,22.92,7.72-16.84,15.88-33.79,24.14-49.99-.32-5.4-.39-8.33-.39-8.33Z"/>
        <path class="cls-7" d="M1677.02,647.14c-21.42,13.23-107.72,73.7-170.08,74.96-62.36,1.26-119.68-17.01-165.04-35.28-45.35-18.27-101.42-40.94-146.14-20.16-44.72,20.79-93.23,47.87-154.96,127.87-54.85,71.08-87.81,117.77-105.08,136.14-17.2,93.35-18.01,166.28-9.57,251.89.14,1.42.32,2.8.49,4.2,23.88,17.12,133.32,92,280.46,137.53,166.93,51.65,341.41,32.76,390.55,19.53,49.13-13.23,176.06-63.66,253.86-137.32,56.23-53.24,97.42-96.62,108.81-111.52,4.01-14.45,6.28-25.93,7.48-35.81,3.92-32.38.28-68.53,1.99-83.47l-26.43,23.13s11.06-26.54,4.42-26.54-17.7,15.48-17.7,15.48c0,0-5.53-87.37-46.45-191.34-24.68-62.7-77.94-127.54-142.76-182.48-1.3-.43-2.65-.86-4.04-1.3-14.35,8.02-43.97,24.69-59.82,34.48Z"/>
        <path class="cls-15" d="M336.44,990.7c69.07,46.13,183.19,112.95,292.4,134.69,9.69-13.02,18.95-24.34,27.02-33.68-1.47-5.61-2.1-9.42-2.1-11.02,0,1.6.63,5.41,2.1,11.02,4.23-4.9,8.13-9.25,11.6-13.02-21-59.14-131.15-271.54-257.21-353.42-110.2-72.97-196.21-92.74-224.67-97.59-9.55,21.2-15.15,53-15.15,100.2,0,11.81.77,23.19,2.16,34.13,7.09,20.54,16.76,45.63,29.17,71.47,38.46,66.22,97.75,124.46,134.67,157.22Z"/>
        <path class="cls-15" d="M336.44,990.7c-36.92-32.76-96.21-91-134.67-157.22-12.41-25.84-22.09-50.93-29.17-71.47,14.21,112.12,94.06,178.22,94.06,178.22-1.59-.38-3.25-.73-4.94-1.07l9.76,4.99s24.91,19.8,64.98,46.56Z"/>
        <path class="cls-8" d="M602.88,1147.05c0,.68.98,4.66,3.03,11.5,5.51-8.61,11.06-16.77,16.53-24.41-39.21,1.22-121.73-1.3-204.26-35.76-95.69-39.95-179.67-134.51-204.09-163.76-65.05-1.07-150.12,14.48-176.61,54.59,37.75,24.03,167.17,104.07,274.53,142.34,106.31,37.9,240.42,45.67,281.59,47.2,4.04-6.99,8.17-13.73,12.32-20.21-2.05-6.84-3.03-10.82-3.03-11.5Z"/>
        <path class="cls-6" d="M667.45,1078.69c7.25-7.88,12.6-13.24,15.05-15.69,6.51-6.51,17.2-16.03,21.52-36.9-1.1-3.73-2.2-6.84-3.38-9.2,1.18,2.35,2.28,5.47,3.38,9.2,1.55-7.49,2.29-16.44,1.7-27.25-.71-13.08-.83-30.02,2.33-51.15-13.33-31.04-46.28-89.95-126.2-175.58-123.87-132.72-263.23-179.17-315.21-183.6-33.5-2.85-63.77.74-81.08,39.16,28.46,4.86,114.47,24.63,224.67,97.59,126.06,81.88,236.21,294.28,257.21,353.42Z"/>
        <path class="cls-5" d="M867,662.84c8.95-9.98,18.06-19.5,27.42-28.61-2.32-9.31-5.7-22.06-9.84-35.5-12.69,14.31-55.86,63.08-83.48,95.05-25.45,29.47-48.46,55.46-61.45,74.72,3.74,27.81,11.15,42.78,16.31,50.18,11.54-20.49,25.64-42.61,42.85-66.45,20.13-27.9,46.78-65.5,68.2-89.4Z"/>
        <path class="cls-17" d="M884.58,598.74c2.32-2.62,3.63-4.09,3.63-4.09,0,0-1.31,1.47-3.63,4.09,4.14,13.44,7.52,26.18,9.84,35.5,9.35-9.1,18.96-17.79,28.91-26.1-1.89-12.25-6.69-30.81-18.51-55.32-22.92-47.57-57.31-57.31-65.9-57.31-3.01,0-7.92,1.13-13.95,4.46,11.27,11.73,38.68,42.01,49.49,69.47,3.7,9.42,7.12,19.54,10.13,29.31Z"/>
        <path class="cls-15" d="M884.58,598.74c-3.01-9.77-6.42-19.89-10.13-29.31-10.8-27.46-38.22-57.74-49.49-69.47-11.21,6.18-26.33,19.95-40.49,48.26-21.78,43.55-49.28,126.08-46.99,193.7.34,9.96,1.11,18.76,2.16,26.58,12.99-19.26,36-45.25,61.45-74.72,27.62-31.98,70.79-80.74,83.48-95.05Z"/>
        <path class="cls-9" d="M418.17,1098.39c82.53,34.45,165.05,36.98,204.26,35.76,2.15-3,4.28-5.91,6.4-8.75-109.21-21.74-223.33-88.56-292.4-134.69,20.01,17.75,33.46,28.03,33.46,28.03,0,0-13.45-10.28-33.46-28.03-40.06-26.76-64.98-46.56-64.98-46.56l-9.76-4.99c-13.25-2.66-29.67-4.23-47.62-4.52,24.43,29.24,108.4,123.81,204.09,163.76Z"/>
        <path d="M1740.87,613.96c-.84-.71-1.68-1.43-2.53-2.14-.48.27-.98.55-1.51.84,1.39.44,2.74.87,4.04,1.3Z"/>
        <path d="M1671.5,1395.28c-1.96.08-4.26.17-6.83.27-35.72,15.67-177.03,69.89-366.39,42.09-32.53-3.21-64.88-8.8-95.58-17.59,30.7,8.79,63.05,14.38,95.58,17.59-16.8-2.47-33.97-5.56-51.49-9.4,0,0-200.72-41-280.8-134.78,12.58,18.58,23.17,28.33,23.17,28.33,0,0-10.59-9.74-23.17-28.33-1.78-2.08-3.52-4.18-5.18-6.32-76.22-98.27-44.72-289.13-37.79-345.19,6.93-56.06,71.81-207.87,160.63-276.53,74.07-57.26,134.56-64.58,177.08-63.97,9.45-1.21,19.28-2.16,29.53-2.81-10.25.64-20.08,1.6-29.53,2.81,8.47.12,16.22.56,23.23.97,42.2,2.52,160.63,22.05,207.24,90.08l1.26-16.38-1.26,16.38c1.26-5.04,17.64-56.06,98.9-84.41,44.93-15.67,93.71-9.39,128.35-.64,11.56,2.27,18.42,4.42,18.42,4.42l-38.42-17.01,38.42,17.01s-6.86-2.15-18.42-4.42c6.71,1.69,12.88,3.48,18.4,5.22.52-.29,1.02-.57,1.51-.84-25.69-21.57-53.14-41.56-81.31-59.26-31.68,11.02-76.37,4.44-106.62-1.17-34.02-6.3-91.97-11.97-177.64-24.57-85.67-12.6-207.87,25.2-290.39,76.22-144.88,96.38-204.72,205.98-243.78,296.69-39.05,90.71-54.17,187.71-54.17,206.61s-14.85,35.02-16.11,37.54c22.05,37.16,65.25,94.11,65.25,94.11-49.76-48.5-97.01-121.57-107.72-179.53-9.49-51.37-1.17-155.69.85-178.72-10.23,26.27-15.77,48.83-18.63,67.94,7.33,17.07,8.73,25.71,8.73,25.71,0,0-1.4-8.64-8.73-25.71-3.16,21.13-3.04,38.06-2.33,51.15.58,10.81-.15,19.76-1.7,27.25,6.57,22.2,13.29,66.8,37.57,110.49,48.5,90.08,171.97,197.79,171.97,197.79-146.77-61.1-202.2-155.59-207.24-170.08-3.98-11.45-23.29-19.74-31.22-22.72,12.51,25.69,31.52,57.15,59.53,89.93,1.42-.89,2.84-1.76,4.28-2.61-1.44.85-2.86,1.72-4.28,2.61,20.57,24.08,45.99,48.86,77.28,72.6,128.3,97.33,259.91,157.05,437.98,205.72,127.94,34.96,247.31,44.81,332.69,41.84,5.18-4.8,7.96-7.55,7.96-7.55,0,0-2.79,2.75-7.96,7.55,23.13-.81,43.75-2.55,61.38-4.99,30.86-89.95,28.82-150.9,29.53-155.18,0,0-3.04,1.53-8.83,4.07,2.57-.1,4.87-.19,6.83-.27Z"/>
        <path d="M1300.81,463.31s7.62-51.24,22.16-54.01,14.54,15.93,14.54,15.93c0,0,23.54-48.47,33.24-65.09,9.69-16.62,14.54-17.31,13.85-6.23-.69,11.08-4.15,67.17-2.08,65.79,2.08-1.39,8.38-11.08,17.31-26.31,8.56-14.59,14.25-24.17,15.23-15.23.82,7.44-.39,18.81-3.46,29.08-2.98,9.97-12.57,41.9-11.19,59.21l-99.61-3.12Z"/>
        <path class="cls-14" d="M725.85,1058.48c10.71,57.95,57.95,131.02,107.72,179.53,0,0-28.7-41.15-44.89-84.04-3.96-14.12-4.24-28.71-4.24-47.61s15.12-115.9,54.17-206.61c39.05-90.71,98.9-200.31,243.78-296.69,82.52-51.02,204.72-88.82,290.39-76.22,85.67,12.6,143.62,18.27,177.64,24.57,30.25,5.6,74.95,12.19,106.62,1.17-17.91-11.25-36.11-21.58-54.34-30.77-120.56-60.83-280.94-78.74-415.11-42.2-119.62,35.69-199.28,74.26-264.25,128.54,1.78,11.52.98,17.46.98,17.46,0,0,.8-5.94-.98-17.46-9.95,8.31-19.56,17-28.91,26.1,2.26,9.04,3.53,14.86,3.53,14.86,0,0-1.27-5.81-3.53-14.86-9.36,9.11-18.48,18.62-27.42,28.61-21.42,23.9-48.06,61.5-68.2,89.4-17.2,23.83-31.3,45.96-42.85,66.45,3.24,4.64,5.6,6.33,5.6,6.33,0,0-2.36-1.69-5.6-6.33-12.54,22.26-22.06,42.58-29.26,61.06-2.01,23.03-10.34,127.35-.85,178.72Z"/>
        <path class="cls-12" d="M1969.9,975.62l-.11.1c-1.71,14.94-6.02,52.27-9.94,84.65-1.2,9.88-3.69,22.51-7.7,36.97,3.03-3.96,4.55-6.1,4.55-6.1,0,0-1.52,2.14-4.55,6.1-12.87,46.4-41.51,111.74-94.34,166.5-55.07,57.07-152.32,106.59-213.63,132.41,8.08-.23,14.97-.48,20.49-.69,5.79-2.54,8.83-4.07,8.83-4.07,0,0,179.17-78.53,246.64-197.98,67.47-119.45,49.77-217.88,49.77-217.88Z"/>
        <path class="cls-12" d="M1851.51,1206.51c-77.79,73.66-204.72,124.09-253.86,137.32-49.13,13.23-223.62,32.13-390.55-19.53-147.14-45.53-256.57-120.41-280.46-137.53,2.63,22.68,8.14,42.73,14.87,59.97,17.6,11.36,118.77,73.58,281.96,114.09,156.23,38.79,343.35,37.63,420.69,35.4,61.31-25.82,158.56-75.34,213.63-132.41,52.83-54.75,81.47-120.1,94.34-166.5-11.4,14.9-44.42,55.93-100.64,109.17Z"/>
        <path class="cls-11" d="M938.13,918.01c-.84,4.27-16.43,35.81-17.2,40,17.27-18.37,65.03-92.38,119.88-163.46,61.73-80,110.24-107.09,154.96-127.87,44.72-20.79,100.79,1.89,146.14,20.16,45.35,18.27,102.68,36.53,165.04,35.28,62.36-1.26,148.66-61.73,170.08-74.96,15.85-9.79,45.47-26.46,59.82-34.48-5.51-1.74-11.69-3.52-18.4-5.22-26.5-5.21-77.72-11.04-127.72,6.94-60.49,19.01-99.53,78.11-99.53,78.11-46.61-68.03-165.04-87.56-207.24-90.08-7.01-.42-14.77-.85-23.23-.97-120.1,15.37-177.08,73.36-201.02,96.72-25.83,25.2-102.05,120.31-121.57,219.84Z"/>
        <path class="cls-13" d="M1223.48,1360.84c-163.2-40.51-264.36-102.74-281.96-114.09,7.45,19.09,16.36,34.74,24.47,46.71,80.08,93.78,280.8,134.78,280.8,134.78,17.52,3.84,34.69,6.93,51.49,9.4,133.01,13.12,268.97-13.75,306.93-26.41,9.69-3.23,23.13-8.32,38.96-14.99-77.35,2.22-264.46,3.38-420.69-35.4Z"/>
        <path class="cls-11" d="M1590.72,614.39c50-17.98,101.22-12.14,127.72-6.94-34.64-8.75-83.42-15.03-128.35.64-81.26,28.35-97.64,79.37-98.9,84.41,0,0,39.03-59.1,99.53-78.11Z"/>
        <path class="cls-13" d="M1298.28,1437.64c189.36,27.8,330.67-26.42,366.39-42.09-5.52.21-12.41.45-20.49.69-15.83,6.67-29.27,11.76-38.96,14.99-37.96,12.65-173.92,39.53-306.93,26.41Z"/>
        <path class="cls-16" d="M938.76,1244.93s.93.63,2.76,1.81c-6.73-17.24-12.24-37.29-14.87-59.97-3.21-2.3-4.9-3.57-4.9-3.57,0,0,1.68,1.27,4.9,3.57-.16-1.4-.35-2.78-.49-4.2-8.44-85.61-7.64-158.54,9.57-251.89-2.17,2.3-4.1,4.19-5.79,5.59,1.69-1.4,3.62-3.29,5.79-5.59.77-4.19,1.56-8.4,2.4-12.68,19.53-99.53,95.75-194.64,121.57-219.84,23.94-23.36,80.92-81.36,201.02-96.72-42.52-.61-103.01,6.7-177.08,63.97-88.82,68.66-153.7,220.47-160.63,276.53-6.93,56.06-38.42,246.93,37.79,345.19,1.66,2.14,3.4,4.24,5.18,6.32-8.1-11.97-17.01-27.62-24.47-46.71-1.83-1.18-2.76-1.81-2.76-1.81Z"/>
        <path class="cls-7" d="M662.57,1299.77c22.88,47.81,53.07,103.58,91.83,162.49,49.04,74.54,121.35,161.68,204,238.97,53.35,15.52,175.05,44.41,299.24,28.68,144.55-18.31,289.92-145.75,324.95-178.26-85.38,2.97-204.75-6.87-332.69-41.84-178.07-48.66-309.68-108.39-437.98-205.72-31.29-23.73-56.71-48.52-77.28-72.6-27.56,17.29-51.29,41.46-72.06,68.26Z"/>
        <path class="cls-1" d="M857.18,1834.96c-66.83-9.7-134.53-20.28-167.43-25.47,49.71,27.46,100.98,48.84,152.03,64.21,24.94,7.51,51.69,14.01,79.64,19.31-23.34-18.53-44.58-37.85-64.23-58.05Z"/>
        <path class="cls-12" d="M747.71,1692c-102.86-28.69-184.2-73.22-214.73-91.24,20.56,56.48,55.94,126.21,101.46,175.18,18.15,12.05,36.61,23.23,55.29,33.56,32.9,5.2,100.61,15.77,167.43,25.47-42.14-43.32-76.97-90.69-109.46-142.97Z"/>
        <path class="cls-14" d="M662.57,1299.77c-32.35-67.59-50.08-119.24-56.67-141.22-4.15,6.49-8.27,13.22-12.32,20.21,8.09.3,12.61.36,12.61.36,0,0-4.52-.06-12.61-.36-1.34,2.31-2.66,4.64-3.98,7-5.38,9.66-10.81,19.9-16.2,30.45,1.36,23.23,7.17,92.64,30.44,175.4,16.79-30.02,35.98-62.5,58.72-91.84Z"/>
        <path class="cls-11" d="M560.85,1466.69c12.78-19.36,26.77-46.07,43-75.08-23.27-82.76-29.08-152.17-30.44-175.4-32.22,63.13-62.81,137.84-72.29,171.95-1.09,3.91-2.3,8.72-3.59,14.25,2.21,26.86,6.41,70.18,13.16,110.83,10.89-2.85,28.21-13.33,50.15-46.56Z"/>
        <path class="cls-2" d="M519.92,1592.77s4.57,2.97,13.06,7.98c-3.25-8.93-6.15-17.54-8.64-25.68-5.4-17.61-9.92-39.31-13.66-61.83-8.32,2.18-12.89-.1-12.89-.1,0,0,4.57,2.28,12.89.1-6.75-40.65-10.95-83.97-13.16-110.83-11.87,50.84-30.39,163.28-17.42,209.16,14.38,50.88,36.5,68.57,36.5,68.57,36.89,36.47,76.55,68.36,117.84,95.79-45.53-48.97-80.9-118.7-101.46-175.18-8.49-5.01-13.06-7.98-13.06-7.98Z"/>
        <path class="cls-7" d="M510.69,1513.25c3.74,22.52,8.26,44.22,13.66,61.83,2.49,8.13,5.39,16.74,8.64,25.68,30.53,18.02,111.86,62.55,214.73,91.24-30.54-49.14-59.01-102.62-89.54-161.16-24.44-46.87-41.88-94.96-54.33-139.23-16.23,29.01-30.22,55.72-43,75.08-21.94,33.23-39.26,43.71-50.15,46.56Z"/>
        <path class="cls-11" d="M628.83,1125.39c2.75.55,5.49,1.07,8.23,1.55-2.74-.49-5.48-1.01-8.23-1.55-2.12,2.84-4.25,5.75-6.4,8.75,14.91-.47,23.58-1.47,23.58-1.47,0,0-8.66,1.01-23.58,1.47-5.47,7.64-11.02,15.8-16.53,24.41,6.59,21.98,24.32,73.63,56.67,141.22,20.77-26.8,44.5-50.97,72.06-68.26-28.02-32.78-47.03-64.24-59.53-89.93-2.11-.79-3.42-1.21-3.42-1.21,0,0,1.31.42,3.42,1.21-10.51-21.58-16.42-39.08-19.24-49.87-8.07,9.34-17.33,20.66-27.02,33.68Z"/>
        <path class="cls-14" d="M682.51,1063c-2.45,2.45-7.81,7.81-15.05,15.69.8,2.24,1.48,4.29,2.01,6.07-.54-1.78-1.22-3.83-2.01-6.07-3.47,3.77-7.37,8.13-11.6,13.02,2.82,10.79,8.74,28.28,19.24,49.87,7.93,2.98,27.24,11.28,31.22,22.72,5.04,14.49,60.47,108.98,207.24,170.08,0,0-123.46-107.72-171.97-197.79-24.27-43.69-30.99-88.29-37.57-110.49-4.32,20.87-15.01,30.39-21.52,36.9Z"/>
        <path class="cls-12" d="M1257.63,1729.92c-124.19,15.73-245.88-13.16-299.24-28.68,54.84,51.29,114.22,98.23,174.4,134.28,48.24-1.59,135.28-10.3,245.4-65.79,119.97-60.45,228.98-174.07,260.64-208.7,1.8-4.87,3.51-9.66,5.13-14.37-17.63,2.44-38.25,4.19-61.38,4.99-35.03,32.51-180.4,159.95-324.95,178.26Z"/>
        <path class="cls-13" d="M1378.19,1769.74c-110.12,55.48-197.16,64.19-245.4,65.79,41.22,24.7,82.81,44.29,123.56,56.65,123.45-27.23,222.84-85.72,301.01-175.52,40.45-52.23,64.36-109.42,81.47-155.61-31.66,34.63-140.67,148.25-260.64,208.7Z"/>
        <path d="M1100.58,1836.1c7.07-.25,17.95-.1,32.21-.57-60.17-36.05-119.56-83-174.4-134.28-17.92-5.21-28.14-8.92-28.14-8.92,0,0,10.22,3.71,28.14,8.92-82.65-77.3-154.96-164.44-204-238.97-38.76-58.91-68.95-114.68-91.83-162.49-22.74,29.34-41.93,61.82-58.72,91.84,12.45,44.27,29.89,92.36,54.33,139.23,30.53,58.54,59,112.02,89.54,161.16,7.29,2.03,14.68,3.99,22.17,5.85-7.49-1.86-14.88-3.82-22.17-5.85,32.49,52.28,67.32,99.65,109.46,142.97,10.42,1.51,20.81,3,31.05,4.45-10.24-1.45-20.63-2.94-31.05-4.45,19.65,20.2,40.9,39.52,64.23,58.05,99.68,18.93,214.62,22.67,317.42,2.81,5.9-1.14,11.72-2.37,17.52-3.65-40.75-12.36-82.33-31.95-123.56-56.65-14.26.47-25.14.32-32.21.57Z"/>
        <g>
          <path d="M1081.91,345.41l18.08,44.85c31.92,86.46,24.16,116.5,24.16,116.5l16.62-6.93c7.8-21.74,3.04-53.36-13.56-106.02-14.76-22.25-45.3-48.4-45.3-48.4Z"/>
          <path class="cls-10" d="M1127.21,393.81c-4.02-12.77-8.73-26.76-14.14-42.17-27.7-78.94-93.48-125.34-93.48-125.34,6.23-30.47-.69-75.48-19.39-104.56-18.7-29.08-57.75-30.85-67.04-29.36-4.32.69-10.39,3.01-14.01,4.99-.16,5.4,3.89,10.07,9.72,15.37,15.23,13.85,42.84,18.67,53.32,49.86,10.09,30.04,11.57,44.68,11.57,44.68,0,0-1.24,10.94,22.84,44.97,18.97,14.94,42.92,42.46,65.31,93.17"/>
          <path d="M993.77,207.27s-1.19-13.48-11.57-44.68c-10.39-31.21-38.09-36.01-53.32-49.86-5.83-5.3-9.88-9.97-9.72-15.37-14.44,7.87-37.64,24.96-39.5,55.16-1.5,24.35,3.51,53.69,33.98,76.54,30.47,22.85,67.17,5.54,67.17,5.54,0,0,14.86,1.15,35.79,17.63-24.08-34.03-22.84-44.97-22.84-44.97Z"/>
        </g>
        <g>
          <path d="M1668.36,175.79c21.41-15.02,24.27-48.47,21.41-61.45-1.36-6.18-.45-13.9.87-20.3-6.55-.65-12.97-.44-18.75.69-47.09,9.69-56.78,44.32-56.78,69.94s1.39,13.16-25.62,45.01-49.17,76.17-74.09,148.88c-24.93,72.71-22.16,126.72-22.16,126.72l11.08,5.54c13.03-72.37,35.13-119.18,54.36-155.68,2.68-13.92,7.19-31.28,14.75-51.48,20.7-55.3,73.52-92.85,94.93-107.87Z"/>
          <path class="cls-10" d="M1742.53,129.35c-6.92-21.28-30.17-33.14-51.88-35.31-10.49-1.06-2.23,14.12-.87,20.3,2.85,12.97,0,46.43-21.41,61.45-21.41,15.02-74.23,52.57-94.93,107.87-7.56,20.2-12.06,37.56-14.75,51.48,8.37-15.89,16.2-29.83,22.5-43.06,20.77-43.63,50.53-72.36,58.17-78.25,9.96-7.67,12.46-10.39,38.78-4.15,26.31,6.23,54.44-14.89,61.63-27.7,7.81-13.91,11.77-24.93,2.77-52.63Z"/>
        </g>
        <g>
          <ellipse class="cls-4" cx="1235.2" cy="891.21" rx="185.96" ry="208.31"/>
          <path d="M1416.01,899.81c0,95.11-47.06,169.34-117.48,169.34s-137.54-74.24-137.54-169.34,51.07-173.36,121.49-173.36,133.53,78.25,133.53,173.36Z"/>
          <path class="cls-10" d="M1403.71,828.79c-2.37-6.55-5.04-12.88-8-18.97-1.93-4.07-4.17-8.39-6.79-12.87-3.31-5.65-6.69-10.68-9.96-15.09-3.5-5.06-7.98-10.73-13.56-16.58-5.68-5.97-11.58-11.38-14.83-13.3-14.13,2.65-49.8,12.79-58.93,48.41-7.77,45.92,21.91,66.45,45.41,70.46,22.45,3.83,62.95,3.32,66.65-42.05Z"/>
          <path class="cls-4" d="M1860.28,843.08c15.86,111.83-31.01,212.21-104.67,224.2-73.67,11.99-146.24-68.95-162.1-180.78-15.86-111.83,31.01-212.21,104.67-224.2,73.67-11.99,146.24,68.95,162.1,180.78Z"/>
          <path d="M1818.88,893.79c0,93.68-43.87,169.63-98,169.63s-99.85-75.96-98-169.63c1.72-87.11,31.84-167.91,85.96-167.91s110.03,74.23,110.03,167.91Z"/>
          <path class="cls-10" d="M1737.51,793.22c0-29.27-20.91-54.09-49.87-62.83-32.54,14.49-53.45,62.23-61.31,119.05,11.15,6.31,24.3,9.97,38.4,9.97,40.2,0,72.78-29.63,72.78-66.19Z"/>
          <g>
            <ellipse class="cls-3" cx="1418.87" cy="1095.52" rx="12.03" ry="10.32"/>
            <path class="cls-3" d="M1639.13,1088.57c0,5.7-5.39,10.32-12.03,10.32s-12.03-4.62-12.03-10.32,5.39-10.32,12.03-10.32,12.03,4.62,12.03,10.32Z"/>
            <path class="cls-3" d="M1410.14,1098.3c.12.36,1.68,5.22,5.26,12.39,5.38,10.75,15.27,26.79,31.87,40.4,8.3,6.79,18.29,12.95,30.11,17.38,11.82,4.44,25.47,7.13,40.94,7.13,3.67,0,7.44-.15,11.31-.46h.05s.01,0,.01,0c18.07-1.57,33.86-7.69,47.14-15.83,19.94-12.23,34.41-28.88,44.05-42.44,9.62-13.58,14.4-24.14,14.57-24.53l-16.72-7.53,3.85,1.73-3.85-1.75h0s3.85,1.75,3.85,1.75l-3.85-1.75s-7.89,17.28-23.29,34.72c-7.69,8.73-17.22,17.49-28.45,24.32-11.25,6.83-24.12,11.75-38.89,13.04h.06c-3.39.27-6.67.4-9.84.4-17.81-.01-32.07-4.06-43.78-10.07-8.77-4.51-16.09-10.16-22.17-16.14-9.11-8.97-15.4-18.72-19.35-26.17-1.97-3.72-3.37-6.86-4.24-9.02-.44-1.08-.75-1.91-.95-2.45-.1-.27-.16-.47-.2-.58l-.04-.11h0s-3.14,1.01-3.14,1.01l3.15-1.01h0s-3.14,1.01-3.14,1.01l3.15-1.01-6.87,2.21,6.88-2.19h0s-6.87,2.19-6.87,2.19l6.88-2.19-17.47,5.57Z"/>
          </g>
          <ellipse class="cls-13" cx="1798.54" cy="1118.44" rx="87.97" ry="39.54" transform="translate(-57.03 97.4) rotate(-3.05)"/>
          <path class="cls-13" d="M1085.7,1184.42s-11.82-24.14,9.96-41.91c21.78-17.77,49.28-22.92,98-21.2,48.71,1.72,107.74,14.9,107.17,55.02-.57,40.12-74.5,48.71-117.48,48.71s-90.76-19.98-97.64-40.62Z"/>
        </g>
      </g>
    </g>
  </g>
</svg>