<svg preserveAspectRatio="xMidYMid meet" data-bbox="24.31 19.951 151.365 159.999" viewBox="24.31 19.951 151.365 159.999" height="100%" width="100%" xmlns="http://www.w3.org/2000/svg" data-type="color" role="img" aria-label="Материал за образование по физика">
    <g>
        <path d="M172.637 45.827c-7.686-10.376-27.03-8.199-48.807.897-5.637-16.653-14.091-26.773-23.699-26.773-9.736 0-18.062 10.12-23.699 26.773-21.906-9.095-41.121-11.273-48.807-.897-6.021 7.814-3.459 20.881 7.046 36.637 3.843 5.765 8.583 11.657 13.963 17.55-19.215 20.881-29.976 42.274-21.265 54.059 3.587 4.74 9.608 6.918 17.166 6.918 8.839 0 19.856-2.946 31.641-7.814 5.637 16.653 14.091 26.773 23.699 26.773 9.736 0 18.062-10.12 23.699-26.773 11.785 4.868 22.802 7.814 31.641 7.814 7.558 0 13.707-2.178 17.166-6.918 8.839-11.785-2.178-33.307-21.393-54.187 19.471-20.753 30.36-42.274 21.649-54.059zm-35.357 2.562c15.116-4.612 26.133-4.227 30.232 1.153 4.099 5.38 1.281 16.141-7.43 29.335-3.587 5.38-8.07 10.889-13.066 16.525-5.124-5.124-10.633-10.248-16.525-15.116-.897-10.12-2.562-19.472-4.868-27.542 3.971-1.665 7.942-3.074 11.657-4.355zm-20.496 74.043c-5.508 4.099-11.145 7.942-16.781 11.401a257.143 257.143 0 0 1-16.653-11.401c-2.562-1.922-5.124-3.843-7.558-5.893-.384-5.38-.641-10.889-.641-16.525s.256-11.145.641-16.525c2.434-1.922 4.996-3.971 7.558-5.893a257.143 257.143 0 0 1 16.653-11.401c5.637 3.459 11.145 7.302 16.781 11.401 2.562 1.922 5.124 3.843 7.558 5.893.384 5.38.641 10.889.641 16.525s-.256 11.145-.641 16.525c-2.562 1.922-4.996 3.971-7.558 5.893zm6.533 2.946c-.897 6.789-2.178 13.323-3.715 19.215-4.484-2.05-8.967-4.484-13.451-7.046a208.467 208.467 0 0 0 14.476-9.992c.897-.768 1.793-1.408 2.69-2.177zm-29.464 12.17c-4.612 2.562-9.095 4.996-13.451 7.046a157.683 157.683 0 0 1-3.715-19.087c.897.769 1.793 1.409 2.818 2.178a405.25 405.25 0 0 0 14.348 9.863zm-24.98-26.645c-4.099-3.587-7.942-7.174-11.529-10.889 3.587-3.587 7.43-7.302 11.529-10.889-.128 3.587-.256 7.174-.256 10.889s.128 7.302.256 10.889zm7.815-36.381a157.645 157.645 0 0 1 3.715-19.087c4.355 2.05 8.967 4.484 13.451 7.046a218.395 218.395 0 0 0-14.347 9.864c-1.026.768-1.923 1.536-2.819 2.177zm29.463-12.042a171.475 171.475 0 0 1 13.451-7.046 155.156 155.156 0 0 1 3.715 19.215 22.67 22.67 0 0 0-2.818-2.05c-4.612-3.586-9.48-6.916-14.348-10.119zm24.852 26.773a237.3 237.3 0 0 1 11.529 10.761c-3.587 3.587-7.43 7.302-11.529 10.761.128-3.587.256-7.174.256-10.761.129-3.715 0-7.302-.256-10.761zm-47.91-42.53c4.74-12.938 10.889-20.368 16.91-20.368s12.17 7.43 16.91 20.368c.256.897.641 1.665.897 2.562-5.893 2.69-11.785 5.893-17.806 9.48-5.893-3.459-11.914-6.661-17.806-9.351.254-.897.639-1.794.895-2.691zM39.922 79.005c-8.711-13.195-11.529-23.827-7.43-29.335 2.178-2.946 6.405-4.355 12.17-4.355 4.996 0 11.017 1.025 17.934 3.203a130.05 130.05 0 0 1 11.657 4.227c-2.178 8.07-3.843 17.294-4.868 27.542-5.893 4.868-11.401 9.992-16.525 15.116-4.867-5.509-9.351-11.017-12.938-16.398zm22.803 72.506c-15.116 4.612-26.133 4.227-30.232-1.153-4.099-5.38-1.281-16.141 7.43-29.335 3.587-5.38 7.942-10.889 13.066-16.397 4.996 5.124 10.633 10.248 16.525 15.116.897 10.12 2.562 19.343 4.868 27.414-3.971 1.793-7.942 3.202-11.657 4.355zm54.187 1.794c-4.74 12.938-10.889 20.368-16.91 20.368s-12.17-7.43-16.91-20.368c-.256-.897-.641-1.665-.897-2.562 5.893-2.69 11.785-5.893 17.806-9.351 5.893 3.587 11.914 6.661 17.806 9.48-.383.639-.639 1.536-.895 2.433zm43.17-32.154c8.711 13.195 11.529 23.827 7.43 29.335-4.099 5.38-14.988 5.893-30.232 1.153-3.715-1.153-7.686-2.562-11.657-4.355 2.178-8.07 3.843-17.422 4.868-27.542 5.893-4.868 11.401-9.992 16.525-15.116 4.996 5.508 9.48 11.017 13.066 16.525z" fill="#413adb" data-color="1"></path>
        <path fill="#f2bf03" d="M69.129 42.112c0 7.216-5.85 13.066-13.066 13.066-7.216 0-13.066-5.85-13.066-13.066 0-7.216 5.85-13.066 13.066-13.066 7.216 0 13.066 5.85 13.066 13.066z" data-color="2"></path>
        <path fill="#f2bf03" d="M113.068 100.014c0 7.216-5.85 13.066-13.066 13.066-7.216 0-13.066-5.85-13.066-13.066 0-7.216 5.85-13.066 13.066-13.066 7.216 0 13.066 5.85 13.066 13.066z" data-color="2"></path>
        <path fill="#c6f4eb" d="M165.078 158.301c0 7.216-5.85 13.066-13.066 13.066-7.216 0-13.066-5.85-13.066-13.066 0-7.216 5.85-13.066 13.066-13.066 7.216 0 13.066 5.85 13.066 13.066z" data-color="3"></path>
    </g>
</svg>