<svg preserveAspectRatio="none" data-bbox="0 0 126.78 124.01" viewBox="0 0 126.78 124.01" xmlns="http://www.w3.org/2000/svg" data-type="color" role="img" aria-label="Образователно помогало за изпит"><defs><style>#comp-jsaayf8t svg [data-color="3"] {fill: #132C57;}
#comp-jsaayf8t svg [data-color="4"] {fill: #91C053;}</style></defs>
    <g>
        <g>
            <path fill="#ff83b5" d="M85.92 118.42L0 107.88 40.02 0l82.91 7.53-37.01 110.89z" data-color="1"></path>
            <path fill="#c6f4eb" d="M72.19 92.73l11.4 1.24 4.38-12.39-11.4-1.24-4.38 12.39z" data-color="2"></path>
            <path fill="#c6f4eb" d="M66.86 107.81l11.41 1.25 4.37-12.39-11.4-1.25-4.38 12.39z" data-color="2"></path>
            <path fill="#c6f4eb" d="M77.52 77.65l11.4 1.24L93.3 66.5l-11.4-1.25-4.38 12.4z" data-color="2"></path>
            <path fill="#c6f4eb" d="M82.85 62.56l11.4 1.24 4.38-12.38-11.4-1.25-4.38 12.39z" data-color="2"></path>
            <path fill="#c6f4eb" d="M92.56 35.09l-4.38 12.39 11.4 1.24 4.38-12.38-11.4-1.25z" data-color="2"></path>
            <path fill="#413adb" d="M57.73 90.89l11.4 1.25 4.37-12.39-11.4-1.24-4.37 12.38z" data-color="3"></path>
            <path fill="#413adb" d="M52.4 105.98l11.4 1.24 4.38-12.39-11.41-1.24-4.37 12.39z" data-color="3"></path>
            <path fill="#413adb" d="M63.05 75.81l11.41 1.25 4.38-12.39-11.41-1.25-4.38 12.39z" data-color="3"></path>
            <path fill="#413adb" d="M68.39 60.73l11.4 1.24 4.37-12.38-11.4-1.25-4.37 12.39z" data-color="3"></path>
            <path fill="#413adb" d="M78.09 33.26l-4.38 12.39 11.4 1.24 4.38-12.38-11.4-1.25z" data-color="3"></path>
            <path fill="#413adb" d="M59.38 78.21l-11.39-1.24-4.38 12.38L55 90.6l4.38-12.39z" data-color="3"></path>
            <path fill="#413adb" d="M42.66 92.05l-4.38 12.39 11.39 1.24 4.38-12.39-11.39-1.24z" data-color="3"></path>
            <path fill="#413adb" d="M64.71 63.12l-11.39-1.24-4.38 12.39 11.39 1.25 4.38-12.4z" data-color="3"></path>
            <path fill="#413adb" d="M70.04 48.04l-11.4-1.24-4.37 12.39 11.39 1.24 4.38-12.39z" data-color="3"></path>
            <path fill="#413adb" d="M70.99 45.35l4.38-12.38-11.4-1.25-4.37 12.39 11.39 1.24z" data-color="3"></path>
            <path fill="#413adb" d="M29.48 87.81l11.4 1.25 4.38-12.39-11.4-1.24-4.38 12.38z" data-color="3"></path>
            <path fill="#413adb" d="M28.53 90.5l-4.38 12.4 11.4 1.24 4.38-12.39-11.4-1.25z" data-color="3"></path>
            <path fill="#413adb" d="M34.81 72.73l11.4 1.25 4.38-12.4-11.4-1.24-4.38 12.39z" data-color="3"></path>
            <path fill="#413adb" d="M55.91 46.5l-11.39-1.24-4.38 12.39 11.4 1.24 4.37-12.39z" data-color="3"></path>
            <path fill="#413adb" d="M56.87 43.81l4.37-12.39-11.39-1.24-4.38 12.38 11.4 1.25z" data-color="3"></path>
            <path fill="#413adb" d="M31.13 75.13l-11.39-1.24-4.38 12.38 11.39 1.24 4.38-12.38z" data-color="3"></path>
            <path fill="#413adb" d="M14.41 88.96l-4.38 12.4 11.39 1.24 4.38-12.39-11.39-1.25z" data-color="3"></path>
            <path fill="#413adb" d="M36.46 60.04L25.07 58.8l-4.38 12.39 11.39 1.25 4.38-12.4z" data-color="3"></path>
            <path fill="#413adb" d="M41.79 44.96l-11.4-1.24-4.37 12.38 11.39 1.25 4.38-12.39z" data-color="3"></path>
            <path fill="#413adb" d="M47.12 29.88l-11.4-1.24-4.37 12.38 11.39 1.25 4.38-12.39z" data-color="3"></path>
            <path fill="#011e62" d="M122.93 7.53L85.92 118.42l4.39 5.59 36.47-107.47-3.85-9.01z" data-color="4"></path>
            <path fill="#011e62" d="M112.79 14.78L43.3 7.89 37.28 23l69.26 8.09 6.25-16.31z" data-color="4"></path>
        </g>
    </g>
</svg>