<svg preserveAspectRatio="xMidYMid meet" data-bbox="50 20 100 159.999" viewBox="50 20 100 159.999" height="200" width="200" xmlns="http://www.w3.org/2000/svg" data-type="color" role="img" aria-label="Материал за образование по химия и биология"><defs><style>#comp-lo7d5c2d svg [data-color="1"] {fill: #C03C3F;}</style></defs>
    <g>
        <path d="M91.498 134.474a1.383 1.383 0 0 1 1.428-1.339c1.254.034 2.555.055 3.899.058a1.384 1.384 0 0 1 1.387 1.383 1.386 1.386 0 0 1-1.396 1.375 167.084 167.084 0 0 1-3.968-.061 1.39 1.39 0 0 1-.749-.241 1.375 1.375 0 0 1-.601-1.175zm-1.102 14.684a6.445 6.445 0 0 1-1.024 4.905 6.558 6.558 0 0 1-4.225 2.749 6.63 6.63 0 0 1-4.982-1.041 6.52 6.52 0 0 1-2.74-4.158c-.683-3.544 1.671-6.978 5.245-7.655 3.581-.675 7.042 1.66 7.726 5.2zm-3.325 3.356a3.728 3.728 0 0 0 .593-2.836 3.778 3.778 0 0 0-1.586-2.406 3.844 3.844 0 0 0-2.886-.604c-1 .189-1.869.755-2.442 1.591a3.73 3.73 0 0 0-.593 2.836 3.76 3.76 0 0 0 1.585 2.408l.021.014a3.826 3.826 0 0 0 2.862.588 3.798 3.798 0 0 0 2.446-1.591zm37.461 3.172c.907 4.706-2.218 9.264-6.965 10.162a8.769 8.769 0 0 1-6.57-1.348l-.048-.033a8.623 8.623 0 0 1-3.635-5.525c-.906-4.704 2.218-9.26 6.964-10.158 4.754-.897 9.347 2.204 10.254 6.902zm-2.732.519a5.907 5.907 0 0 0-2.483-3.768 6.01 6.01 0 0 0-4.517-.944c-3.239.613-5.371 3.724-4.753 6.934a5.884 5.884 0 0 0 2.481 3.771l.033.022a5.987 5.987 0 0 0 4.483.92c3.241-.613 5.374-3.725 4.756-6.935zm16.219 17.228c-6.886 3.684-15.922 6.206-37.641 6.535-20.589.312-29.422-1.722-37.719-5.341a28.178 28.178 0 0 1-4.62-2.542c-3.681-2.513-6.356-5.72-7.471-9.086-.956-2.887-.702-5.726.736-8.205l29.383-54.422a14.144 14.144 0 0 0 1.692-6.912l-.293-14.427c-.001-.076.034-.141.039-.216-.207-.117-.45-.215-.637-.343-1.286-.878-2.075-2.007-2.097-3.453l-.13-8.775a2.321 2.321 0 0 1 .016-.312c.671-5.475 12.657-6.474 19.742-6.582 5.522-.083 10.223.317 13.593 1.158 4.192 1.044 6.335 2.802 6.374 5.226l.133 8.679c.026 1.567-.856 2.879-2.6 3.931.004.049.03.09.031.139l.296 14.573a14.184 14.184 0 0 0 1.797 6.681l30.033 53.606c1.304 1.996 1.655 4.406 1.008 6.975-1.38 5.486-6.854 10.54-11.665 13.113zM83.903 66.647l.006.417c.544.292 1.363.626 2.628.941 3.059.763 7.427 1.124 12.631 1.046 5.204-.078 9.557-.573 12.593-1.43 1.258-.355 2.067-.714 2.601-1.023l-.008-.495c-.935-.831-5.568-2.302-15.265-2.154-10.459.158-14.411 2.014-15.186 2.698zm15.386 10.164c9.694-.146 14.269-1.753 15.19-2.616l-.071-4.572c-.57.232-1.184.453-1.886.651-3.264.921-7.868 1.452-13.314 1.535-5.442.083-10.06-.308-13.351-1.13a17.93 17.93 0 0 1-1.904-.589l.068 4.567c.933.843 5.571 2.303 15.268 2.154zM84.776 102.54l-11.147 20.646c7.785-2.73 21.2-3.211 26.442-3.29 5.092-.076 17.898-.009 25.836 2.279l-11.318-20.203a18.734 18.734 0 0 1-2.379-8.83l-.264-13.061c-3.257.79-7.57 1.249-12.588 1.325-3.678.055-8.574-.1-12.608-.963l.264 12.938a18.738 18.738 0 0 1-2.238 9.159zm60.408 56.672c.342-1.355.203-2.468-.425-3.401a3.18 3.18 0 0 1-.097-.158l-14-24.99c-4.079 3.076-13.781 4.324-20.175 4.817a1.387 1.387 0 0 1-1.494-1.268 1.382 1.382 0 0 1 1.278-1.481c12.148-.936 17.519-3.056 19.047-4.465l-1.374-2.452c-3.376-1.625-11.722-3.408-27.835-3.163-17.888.273-26.151 2.753-28.66 4.566l-.772 1.429c.54.934 3.608 2.93 13.57 3.951a1.381 1.381 0 0 1 1.24 1.513 1.387 1.387 0 0 1-1.527 1.229c-6.848-.701-11.543-1.914-14.041-3.62-.238-.163-.428-.336-.627-.508l-13.935 25.81c-.809 1.398-.928 2.906-.385 4.543 1.119 3.382 4.779 6.773 9.553 8.857 7.71 3.362 16.037 5.251 35.782 4.951 20.777-.316 29.221-2.62 35.506-5.984 4.561-2.436 8.502-6.718 9.371-10.176zm-58.048-50.19a1.371 1.371 0 0 0 .521 1.88 1.4 1.4 0 0 0 1.897-.516 38.84 38.84 0 0 0 4.963-15.605 1.38 1.38 0 0 0-1.255-1.5 1.387 1.387 0 0 0-1.514 1.244 36.113 36.113 0 0 1-4.612 14.497zm7.915-77.72a13.726 13.726 0 0 1-2.177 10.426 13.942 13.942 0 0 1-8.977 5.843 14.092 14.092 0 0 1-10.592-2.215c-2.934-2.003-5.106-5.104-5.825-8.838a13.713 13.713 0 0 1 2.176-10.424 13.954 13.954 0 0 1 8.978-5.845c7.599-1.44 14.965 3.518 16.417 11.053zm-6.011 7.842a9.182 9.182 0 0 0 1.458-6.98 9.287 9.287 0 0 0-3.902-5.919 9.428 9.428 0 0 0-7.091-1.483 9.342 9.342 0 0 0-6.012 3.914 9.174 9.174 0 0 0-1.457 6.98 9.247 9.247 0 0 0 3.897 5.922l.052.036a9.408 9.408 0 0 0 7.044 1.444 9.337 9.337 0 0 0 6.011-3.914zm11.319 5.959a7.36 7.36 0 0 1 1.167-5.592 7.485 7.485 0 0 1 4.816-3.137c4.08-.771 8.031 1.891 8.81 5.931a7.354 7.354 0 0 1-1.168 5.593 7.49 7.49 0 0 1-4.817 3.135 7.538 7.538 0 0 1-5.643-1.157l-.043-.03a7.41 7.41 0 0 1-3.122-4.743zm4.554-.862c.302 1.553 1.821 2.573 3.385 2.279a2.875 2.875 0 0 0 1.852-1.205 2.83 2.83 0 0 0 .449-2.148 2.858 2.858 0 0 0-1.202-1.821 2.902 2.902 0 0 0-2.184-.458c-1.569.296-2.599 1.8-2.3 3.353z" fill="#D35B5B" data-color="1"></path>
    </g>
</svg>