<svg preserveAspectRatio="xMidYMid meet" width="50" height="75" viewBox="-0.002 0 86.088 131.26" xmlns="http://www.w3.org/2000/svg" data-type="color" role="img" aria-label="Тот Академия лого Интерактивен биологичен инструмент">
        <g>
          <g>
            <path d="M65.1 0c2.17.05 6.72 3.29 7.4 5.08a3.76 3.76 0 0 1-.5 3.61c-1.49 2.21-3 4.37-4.53 6.58-.46.69-.73.74-1.42.17a41.57 41.57 0 0 0-8.46-5.82c-.77-.38-.65-.7-.25-1.26 1.66-2.22 3.15-4.49 4.74-6.71A4.18 4.18 0 0 1 65.1 0Z" fill="#000000" data-color="1"></path>
            <path d="M23.2 57.77a58.22 58.22 0 0 0 10.08 6.91c-1.76 2.52-3.5 5-5.26 7.55a2.75 2.75 0 0 1-.59.59c-2.11 1.75-4.76 1.05-8.49-2.25a4.05 4.05 0 0 1-.71-5.65c1.59-2.39 3.27-4.72 4.97-7.15Z" fill="#000000" data-color="1"></path>
            <path d="M67.84 104.85c-.71-1.07-.81-1.65.43-2.38a29 29 0 0 0 5.63-4.39c16.53-16.16 16.21-41.74-.76-57.54a2.26 2.26 0 0 1-.85-2.64 11.88 11.88 0 0 0-6.12-13.85 1.92 1.92 0 0 1-1.28-1.86 5.79 5.79 0 0 0-2.73-4.74c-1.61-1.13-3.19-2.3-4.84-3.37a6 6 0 0 0-8.69 1.61Q37.49 31.53 26.45 47.43c-2.29 3.3-1.65 6.57 1.61 9 1.41 1 2.86 2 4.31 3 3.56 2.43 7 1.81 9.44-1.73q4.55-6.46 9-12.95c.55-.8.82-1.15 1.86-.39 5.41 4 11.07 3.71 16.15-.63.84-.72 1.16-.51 1.82.08 16.78 15 14.38 43.26-4.7 55.31-.94.6-1.41.71-2.09-.36-3.34-5.31-6.85-10.55-10.23-15.88-2.47-3.88-6.42-3.9-8.88 0-3.66 5.74-7.42 11.4-11.08 17.13-.57.89-1 1.14-1.94.51-1.56-1.06-3.26-1.94-4.75-3.1a33.43 33.43 0 0 1-9.4-11.27h12.26c1.41 0 2.84-.19 2.88-2S31.37 82 29.92 82H2.74c-1.41 0-2.68.39-2.74 2-.06 1.74 1.28 2.13 2.76 2.13h8.85a1.82 1.82 0 0 1 1.93 1.18 37.08 37.08 0 0 0 15.74 16.47c1.34.71 1.12 1.28.44 2.29-3.7 5.62-7.34 11.29-11 16.91-1.24 1.88-1.91 3.76-.7 5.88s3.06 2.4 5.23 2.4h51.84c2.23 0 4.19-.35 5.36-2.52s.39-4-.84-5.87c-3.98-6.03-7.83-12.05-11.77-18.02Zm-8.31-82.21c-5.55.58-9.38 3.71-10.93 9a11 11 0 0 0 .18 7 2.32 2.32 0 0 1-.35 2.47c-3.33 4.68-6.58 9.42-9.88 14.12-1.3 1.86-2.09 2-4 .72-1.4-.93-2.77-1.91-4.13-2.9a2.2 2.2 0 0 1-.53-3.44q11-15.68 21.9-31.37a2.43 2.43 0 0 1 2.61-1.12c2 1.24 4.38 2.52 6.12 4.53.94 1.11-.44.94-.99.99ZM48.9 116.79a9.16 9.16 0 1 1 9.51-8.9 9.17 9.17 0 0 1-9.51 8.9Z" fill="#000000" data-color="1"></path>
          </g>
        </g>
      </svg>